<svg width="28" height="28" viewBox="0 0 28 28" fill="none" xmlns="http://www.w3.org/2000/svg">
<path fill-rule="evenodd" clip-rule="evenodd" d="M6.03411 14C6.03411 13.0906 6.18505 12.2187 6.45477 11.401L1.73633 7.79797C0.816706 9.665 0.298706 11.7689 0.298706 14C0.298706 16.2293 0.816269 18.3317 1.73436 20.1976L6.45017 16.5876C6.18308 15.7736 6.03411 14.9049 6.03411 14Z" fill="#FBBC05"/>
<path fill-rule="evenodd" clip-rule="evenodd" d="M14.3187 5.72731C16.2943 5.72731 18.0786 6.42731 19.4806 7.57269L23.5589 3.5C21.0737 1.33634 17.8874 0 14.3187 0C8.77823 0 4.01648 3.16837 1.73645 7.798L6.45467 11.401C7.54186 8.10097 10.6409 5.72731 14.3187 5.72731Z" fill="#EA4335"/>
<path fill-rule="evenodd" clip-rule="evenodd" d="M14.3187 22.2727C10.6411 22.2727 7.54208 19.8991 6.45489 16.599L1.73645 20.2014C4.01648 24.8317 8.77823 28 14.3187 28C17.7382 28 21.0031 26.7858 23.4533 24.5108L18.9746 21.0484C17.7109 21.8444 16.1195 22.2727 14.3187 22.2727Z" fill="#34A853"/>
<path fill-rule="evenodd" clip-rule="evenodd" d="M27.7012 14C27.7012 13.1727 27.5737 12.2817 27.3825 11.4546H14.3187V16.8636H21.8385C21.4624 18.7079 20.4391 20.1256 18.9746 21.0483L23.4533 24.5107C26.0271 22.1219 27.7012 18.5633 27.7012 14Z" fill="#4285F4"/>
</svg>
