<svg width="55" height="43" viewBox="0 0 55 43" fill="none" xmlns="http://www.w3.org/2000/svg">
<path d="M28.0842 1L4.61133 11.9667V16.6667H51.557V11.9667L28.0842 1Z" stroke="#D5BA00" stroke-width="2" stroke-miterlimit="10" stroke-linecap="round" stroke-linejoin="round"/>
<path d="M15.4451 16.6666H8.22266V32.3333H15.4451V16.6666Z" stroke="#D5BA00" stroke-width="2" stroke-miterlimit="10" stroke-linecap="round" stroke-linejoin="round"/>
<path d="M54 41.7333H1V37.0333H30.4313" stroke="#D5BA00" stroke-width="2" stroke-miterlimit="10" stroke-linecap="round" stroke-linejoin="round"/>
<path d="M53.4995 37.0334H4.61133V32.3334H30.0703" stroke="#D5BA00" stroke-width="2" stroke-miterlimit="10" stroke-linecap="round" stroke-linejoin="round"/>
<path d="M40.9834 31V17H47.9922V31" stroke="#D5BA00" stroke-width="2" stroke-miterlimit="10" stroke-linecap="round" stroke-linejoin="round"/>
<path d="M50.9961 32.3333H24.4727V16.6666H31.6951V31" stroke="#D5BA00" stroke-width="2" stroke-miterlimit="10" stroke-linecap="round" stroke-linejoin="round"/>
<path d="M55 37C55 36.4477 54.5523 36 54 36C53.4477 36 53 36.4477 53 37L55 37ZM53 37L53 42L55 42L55 37L53 37Z" fill="#D5BA00"/>
<path d="M51.9961 33C51.9961 32.4477 51.5484 32 50.9961 32C50.4438 32 49.9961 32.4477 49.9961 33L51.9961 33ZM51.9961 37L51.9961 33L49.9961 33L49.9961 37L51.9961 37Z" fill="#D5BA00"/>
</svg>
