<svg width="486" height="356" viewBox="0 0 486 356" fill="none" xmlns="http://www.w3.org/2000/svg">
<path d="M456.659 213.799C485.396 171.754 498.093 109.152 471.197 63.5526C446.288 21.4967 392.593 1.18765 343.126 0.0555991C300.334 -0.917968 266.363 10.912 232.973 34.1418C215.757 46.1302 198.359 58.9564 177.63 65.9412C161.444 71.3977 144.797 75.1561 128.102 79.3221C67.7317 94.4124 30.5254 145.593 38.6306 200.622C44.8821 242.915 80.0166 282.254 124.843 297.967C159.602 310.148 196.13 301.148 229.714 290.507C247.814 284.767 266.06 278.836 285.166 276.164C303.642 273.571 321.512 276.809 339.806 274.941C384.887 270.345 431.362 250.851 456.659 213.799Z" fill="#C956FF"/>
<path opacity="0.7" d="M456.659 213.799C485.396 171.754 498.093 109.152 471.197 63.5526C446.288 21.4967 392.593 1.18765 343.126 0.0555991C300.334 -0.917968 266.363 10.912 232.973 34.1418C215.757 46.1302 198.359 58.9564 177.63 65.9412C161.444 71.3977 144.797 75.1561 128.102 79.3221C67.7317 94.4124 30.5254 145.593 38.6306 200.622C44.8821 242.915 80.0166 282.254 124.843 297.967C159.602 310.148 196.13 301.148 229.714 290.507C247.814 284.767 266.06 278.836 285.166 276.164C303.642 273.571 321.512 276.809 339.806 274.941C384.887 270.345 431.362 250.851 456.659 213.799Z" fill="white"/>
<path d="M470.918 234.38H465.793H233.808H228.684V243.98H233.808V341.551H465.793V243.98H470.918V234.38Z" fill="#C956FF"/>
<path opacity="0.5" d="M470.918 234.38H465.793H233.808H228.684V243.98H233.808V341.551H465.793V243.98H470.918V234.38Z" fill="white"/>
<path d="M240.023 285.333H303.289V253.772H240.023V285.333ZM241.307 254.938H302.005V284.201H241.307V254.938Z" fill="white"/>
<path d="M318.592 285.333H381.87V253.772H318.592V285.333ZM319.9 254.972H380.61V284.201H319.9V254.972Z" fill="white"/>
<path d="M397.171 253.772V285.333H460.437V253.772H397.171ZM459.153 284.201H398.455V254.972H459.153V284.201Z" fill="white"/>
<path d="M240.023 327.763H303.289V296.167H240.023V327.763ZM241.307 297.367H302.005V326.563H241.307V297.367Z" fill="white"/>
<path d="M318.592 327.763H381.87V296.167H318.592V327.763ZM319.9 297.367H380.61V326.563H319.9V297.367Z" fill="white"/>
<path d="M397.171 327.763H460.437V296.167H397.171V327.763ZM398.455 297.367H459.153V326.563H398.455V297.367Z" fill="white"/>
<path d="M272.335 273.572C278.009 273.572 282.609 271.96 282.609 269.972C282.609 267.983 278.009 266.372 272.335 266.372C266.661 266.372 262.061 267.983 262.061 269.972C262.061 271.96 266.661 273.572 272.335 273.572Z" fill="white"/>
<path d="M350.527 273.572C356.201 273.572 360.801 271.96 360.801 269.972C360.801 267.983 356.201 266.372 350.527 266.372C344.853 266.372 340.253 267.983 340.253 269.972C340.253 271.96 344.853 273.572 350.527 273.572Z" fill="white"/>
<path d="M430.986 273.572C436.66 273.572 441.26 271.96 441.26 269.972C441.26 267.983 436.66 266.372 430.986 266.372C425.312 266.372 420.712 267.983 420.712 269.972C420.712 271.96 425.312 273.572 430.986 273.572Z" fill="white"/>
<path d="M272.335 308.767C266.665 308.767 262.061 310.375 262.061 312.367C262.061 314.359 266.665 315.956 272.335 315.956C278.005 315.956 282.609 314.348 282.609 312.367C282.609 310.386 278.005 308.767 272.335 308.767Z" fill="white"/>
<path d="M350.527 308.767C344.857 308.767 340.253 310.375 340.253 312.367C340.253 314.359 344.857 315.956 350.527 315.956C356.197 315.956 360.801 314.348 360.801 312.367C360.801 310.386 356.246 308.767 350.527 308.767Z" fill="white"/>
<path d="M430.985 308.767C425.315 308.767 420.723 310.375 420.723 312.367C420.723 314.359 425.315 315.956 430.985 315.956C436.655 315.956 441.259 314.348 441.259 312.367C441.259 310.386 436.667 308.767 430.985 308.767Z" fill="white"/>
<path d="M200.176 225.991C195.5 232.478 188.982 240.912 185.505 247.681C186.825 243.221 188.122 238.999 189.297 235.229C191.078 231.957 195.851 223.705 201.412 218.248C208.403 211.252 211.395 206.758 207.627 206.373C205.023 206.101 197.39 215.599 192.604 225.029C193.646 221.803 194.47 219.369 195.027 217.908C195.258 217.252 195.476 216.539 195.694 215.78C200.644 209.309 205.152 202.552 209.19 195.55C216.253 183.222 218.531 171.585 213.818 176.588C209.481 181.196 201.933 204.109 195.936 214.886C196.445 213.029 196.929 210.98 197.354 208.954C198.202 206.995 199.316 205.003 199.946 203.192C200.928 200.407 201.788 197.599 202.478 194.735C203.617 190.285 204.195 185.726 204.199 181.151C204.32 175.776 202.753 170.487 199.692 165.936C198.88 164.804 193.913 157.864 192.423 161.408C192.228 161.998 192.191 162.623 192.314 163.23C193.04 169.128 195.33 174.551 196.748 180.29C198.868 188.883 197.463 203.305 196.748 209.441C196.481 210.414 196.142 211.614 195.742 213.007C196.724 202.32 191.768 189.652 187.177 187.433C181.495 184.694 187.068 195.448 191.453 204.845C193.531 208.956 194.508 213.479 194.3 218.022C193.404 221.101 192.374 224.576 191.308 228.086C191.09 228.561 190.896 229.048 190.702 229.523C191.195 227.233 191.394 224.896 191.296 222.561C190.884 216.425 183.445 204.143 178.502 205.875C173.559 207.607 181.931 214.082 186.401 221.622C188.747 225.791 189.649 230.538 188.982 235.206C188.982 235.489 188.885 235.761 188.849 236.021C188.328 237.629 187.819 239.168 187.334 240.64C186.123 244.036 185.093 247.297 184.063 250.444C185.328 245.878 185.883 241.165 185.711 236.452C185.093 227.463 179.459 218.973 174.807 217.807C170.155 216.641 179.035 231.312 182.016 239.553C183.636 244.367 183.911 249.488 182.815 254.429C181.373 258.889 180.016 263.293 178.623 267.945C179.012 261.85 178.871 255.736 178.199 249.663C177.291 239.655 170.93 233.27 166.544 233.531C162.158 233.791 166.738 239.474 173.062 251.644C176.402 258.033 177.889 265.13 177.375 272.224C176.806 274.183 176.164 276.198 175.631 278.304C174.952 280.704 174.419 283.319 173.935 285.99C173.305 283.602 172.36 280.115 171.257 276.266C169.973 272.011 169.042 267.67 168.471 263.281C167.877 258.176 166.435 251.802 161.08 249.153C160.716 248.916 160.301 248.757 159.864 248.686C159.427 248.614 158.979 248.633 158.551 248.741C158.122 248.849 157.725 249.043 157.385 249.31C157.046 249.577 156.773 249.91 156.585 250.285C156.094 251.38 155.984 252.592 156.27 253.749C156.981 257.222 158.205 260.586 159.905 263.745C158.853 265.63 158.375 267.749 158.524 269.87C158.524 270.662 158.597 271.455 158.657 272.247C158.185 271.432 157.736 270.685 157.312 269.983C156.542 268.783 155.596 267.689 154.502 266.734C154.776 264.858 154.914 262.967 154.913 261.074C154.913 258.595 151.8 252.266 148.989 256.953C147.862 258.832 148.08 262.511 147.971 264.957C147.208 265.636 146.978 267.017 147.62 269.191C147.184 274.851 147.099 280.647 148.565 286.171L147.596 284.598C146.23 278.049 145.42 271.41 145.173 264.742C144.821 253.727 146.699 244.693 143.489 241.297C140.278 237.901 138.485 249.844 139.854 262.862C140.499 268.803 142.194 274.602 144.87 280.024C141.72 274.738 138.606 269.349 135.662 264.176C134.451 261.402 131.446 253.896 132.185 246.289C133.118 236.701 133.796 228.844 129.895 223.444C125.994 218.044 125.182 221.554 127.097 232.806C128.405 240.527 129.798 250.851 132.197 258.017C129.92 253.908 127.775 250.002 125.861 246.47C124.77 242.938 122.226 233.87 122.226 226.342C122.226 216.765 121.136 211.626 118.107 213.697C115.999 215.158 117.356 226.976 120.748 236.916C119.161 233.893 117.962 231.572 117.271 230.203C116.956 229.58 116.605 228.912 116.205 228.221C115.096 220.337 113.458 212.525 111.298 204.833C107.458 191.316 100.612 181.354 100.831 188.022C101.024 194.158 112.243 215.712 115.745 227.418C114.751 225.731 113.6 223.931 112.437 222.176C111.625 220.195 110.983 218.033 110.123 216.312C108.802 213.652 107.385 211.048 105.798 208.512C103.374 204.525 100.459 200.817 97.1112 197.464C93.2333 193.337 88.1241 190.389 82.4395 188.996C81.0099 188.679 72.3353 186.732 73.8133 190.354C74.0897 190.907 74.5054 191.389 75.0249 191.758C79.871 195.607 85.4925 198.109 90.7748 201.403C98.6013 206.339 108.112 217.773 112.037 222.742L113.903 225.991C106.816 217.546 93.9369 211.456 88.9696 212.769C82.8151 214.388 94.7366 218.69 104.804 222.754C109.328 224.433 113.345 227.118 116.508 230.576C118.107 233.406 119.888 236.587 121.669 239.836C121.875 240.323 122.069 240.799 122.275 241.274C120.966 239.286 119.408 237.45 117.635 235.806C112.849 231.595 98.4317 227.35 96.0935 231.765C93.7552 236.18 104.574 235.591 113.37 238.24C118.107 239.793 122.216 242.676 125.134 246.493C125.304 246.719 125.461 246.957 125.631 247.172C126.43 248.666 127.181 250.127 127.896 251.508C129.544 254.757 131.119 257.802 132.658 260.757C130.256 256.598 127.224 252.785 123.656 249.436C116.629 243.255 106.307 240.651 102.03 242.802C97.7533 244.953 114.981 249.968 123.183 254.123C127.885 256.609 131.826 260.179 134.632 264.493C136.837 268.67 139.054 272.757 141.441 277.047C137.274 272.345 132.708 267.965 127.787 263.949C119.803 257.213 110.487 256.602 107.47 259.591C104.453 262.579 111.952 263.813 125.449 268.647C132.551 271.187 138.817 275.422 143.622 280.93C144.64 282.73 145.682 284.575 146.796 286.5C148.008 288.673 149.546 290.937 151.17 293.19C148.965 291.854 145.718 289.907 142.108 287.802C138.056 285.51 134.204 282.925 130.586 280.07C126.418 276.73 120.712 272.983 114.836 274.466C114.398 274.526 113.98 274.674 113.611 274.902C113.242 275.129 112.931 275.429 112.7 275.781C112.469 276.133 112.323 276.529 112.274 276.939C112.224 277.349 112.272 277.765 112.413 278.156C112.841 279.276 113.644 280.237 114.703 280.896C120.227 284.892 127.654 286.817 134.087 289.183C139.983 291.35 146.025 293.15 152.175 294.571C153.702 296.62 155.289 298.647 156.888 300.571L154.005 300.65C150.588 300.752 135.178 294.22 127.351 292.126C119.525 290.032 112.207 293.994 120.409 298.115C128.611 302.235 150.915 301.318 150.915 301.318L157.349 301.137C158.863 302.948 160.341 304.669 161.747 306.243H131.18V314.167H137.237L142.083 342.344H182.706L187.613 314.167H193.67V306.243H173.426C173.262 302.818 173.359 299.387 173.716 295.975C175.067 294.691 176.567 293.552 178.187 292.579C187.08 286.839 202.151 286.364 206.161 275.304C207.131 272.643 206.028 269.224 202.624 269.372C200.201 269.474 197.572 271.489 196.045 273.13C190.957 278.621 187.128 284.315 180.513 288.481C178.241 290.113 176.057 291.851 173.971 293.688C174.201 291.888 174.492 289.964 174.867 287.903C176.466 285.254 178.289 282.729 180.319 280.353C185.735 274.07 193.973 270.391 199.825 264.402C201.618 262.568 203.981 255.979 198.504 257.61C196.081 258.334 193.198 261.787 191.235 263.36C185.844 267.889 180.331 272.711 176.818 278.666C176.963 278.077 177.121 277.534 177.266 276.9C181.046 271.237 185.304 265.865 190 260.836C197.778 252.572 205.749 247.161 205.883 242.633C206.016 238.104 195.984 245.689 187.467 256.059C183.604 260.816 180.607 266.136 178.599 271.806C180.162 265.942 181.822 260.01 183.445 254.327C184.56 251.496 187.867 244.138 193.961 239.033C201.654 232.614 207.882 227.316 208.984 220.92C210.087 214.524 206.997 216.55 200.176 225.991ZM157.155 298.805C156.004 297.345 154.804 295.76 153.52 294.005C152.755 291.029 152.245 288.001 151.994 284.949C151.838 282.351 151.968 279.745 152.381 277.172C154.449 279.564 156.645 281.857 158.96 284.043C158.905 286.306 158.608 288.559 158.076 290.767C157.622 293.43 157.314 296.113 157.155 298.805ZM163.746 306.265C162.183 304.714 160.474 302.869 158.621 300.605C158.667 298.809 158.931 297.024 159.408 295.284C160.148 292.541 161.213 289.883 162.582 287.36C165.454 289.907 167.562 291.594 167.562 291.594L172.408 295.567C172.032 299.518 171.814 303.231 171.681 306.243L163.746 306.265ZM172.469 294.877L170.3 293.1C169.088 292.081 166.908 288.141 164.533 283.602C165.546 281.691 166.444 279.73 167.223 277.726C169.791 282.175 172.069 285.651 173.414 287.496C173.026 289.952 172.723 292.454 172.469 294.877Z" fill="#C956FF"/>
<path opacity="0.5" d="M200.176 225.991C195.5 232.478 188.982 240.912 185.505 247.681C186.825 243.221 188.122 238.999 189.297 235.229C191.078 231.957 195.851 223.705 201.412 218.248C208.403 211.252 211.395 206.758 207.627 206.373C205.023 206.101 197.39 215.599 192.604 225.029C193.646 221.803 194.47 219.369 195.027 217.908C195.258 217.252 195.476 216.539 195.694 215.78C200.644 209.309 205.152 202.552 209.19 195.55C216.253 183.222 218.531 171.585 213.818 176.588C209.481 181.196 201.933 204.109 195.936 214.886C196.445 213.029 196.929 210.98 197.354 208.954C198.202 206.995 199.316 205.003 199.946 203.192C200.928 200.407 201.788 197.599 202.478 194.735C203.617 190.285 204.195 185.726 204.199 181.151C204.32 175.776 202.753 170.487 199.692 165.936C198.88 164.804 193.913 157.864 192.423 161.408C192.228 161.998 192.191 162.623 192.314 163.23C193.04 169.128 195.33 174.551 196.748 180.29C198.868 188.883 197.463 203.305 196.748 209.441C196.481 210.414 196.142 211.614 195.742 213.007C196.724 202.32 191.768 189.652 187.177 187.433C181.495 184.694 187.068 195.448 191.453 204.845C193.531 208.956 194.508 213.479 194.3 218.022C193.404 221.101 192.374 224.576 191.308 228.086C191.09 228.561 190.896 229.048 190.702 229.523C191.195 227.233 191.394 224.896 191.296 222.561C190.884 216.425 183.445 204.143 178.502 205.875C173.559 207.607 181.931 214.082 186.401 221.622C188.747 225.791 189.649 230.538 188.982 235.206C188.982 235.489 188.885 235.761 188.849 236.021C188.328 237.629 187.819 239.168 187.334 240.64C186.123 244.036 185.093 247.297 184.063 250.444C185.328 245.878 185.883 241.165 185.711 236.452C185.093 227.463 179.459 218.973 174.807 217.807C170.155 216.641 179.035 231.312 182.016 239.553C183.636 244.367 183.911 249.488 182.815 254.429C181.373 258.889 180.016 263.293 178.623 267.945C179.012 261.85 178.871 255.736 178.199 249.663C177.291 239.655 170.93 233.27 166.544 233.531C162.158 233.791 166.738 239.474 173.062 251.644C176.402 258.033 177.889 265.13 177.375 272.224C176.806 274.183 176.164 276.198 175.631 278.304C174.952 280.704 174.419 283.319 173.935 285.99C173.305 283.602 172.36 280.115 171.257 276.266C169.973 272.011 169.042 267.67 168.471 263.281C167.877 258.176 166.435 251.802 161.08 249.153C160.716 248.916 160.301 248.757 159.864 248.686C159.427 248.614 158.979 248.633 158.551 248.741C158.122 248.849 157.725 249.043 157.385 249.31C157.046 249.577 156.773 249.91 156.585 250.285C156.094 251.38 155.984 252.592 156.27 253.749C156.981 257.222 158.205 260.586 159.905 263.745C158.853 265.63 158.375 267.749 158.524 269.87C158.524 270.662 158.597 271.455 158.657 272.247C158.185 271.432 157.736 270.685 157.312 269.983C156.542 268.783 155.596 267.689 154.502 266.734C154.776 264.858 154.914 262.967 154.913 261.074C154.913 258.595 151.8 252.266 148.989 256.953C147.862 258.832 148.08 262.511 147.971 264.957C147.208 265.636 146.978 267.017 147.62 269.191C147.184 274.851 147.099 280.647 148.565 286.171L147.596 284.598C146.23 278.049 145.42 271.41 145.173 264.742C144.821 253.727 146.699 244.693 143.489 241.297C140.278 237.901 138.485 249.844 139.854 262.862C140.499 268.803 142.194 274.602 144.87 280.024C141.72 274.738 138.606 269.349 135.662 264.176C134.451 261.402 131.446 253.896 132.185 246.289C133.118 236.701 133.796 228.844 129.895 223.444C125.994 218.044 125.182 221.554 127.097 232.806C128.405 240.527 129.798 250.851 132.197 258.017C129.92 253.908 127.775 250.002 125.861 246.47C124.77 242.938 122.226 233.87 122.226 226.342C122.226 216.765 121.136 211.626 118.107 213.697C115.999 215.158 117.356 226.976 120.748 236.916C119.161 233.893 117.962 231.572 117.271 230.203C116.956 229.58 116.605 228.912 116.205 228.221C115.096 220.337 113.458 212.525 111.298 204.833C107.458 191.316 100.612 181.354 100.831 188.022C101.024 194.158 112.243 215.712 115.745 227.418C114.751 225.731 113.6 223.931 112.437 222.176C111.625 220.195 110.983 218.033 110.123 216.312C108.802 213.652 107.385 211.048 105.798 208.512C103.374 204.525 100.459 200.817 97.1112 197.464C93.2333 193.337 88.1241 190.389 82.4395 188.996C81.0099 188.679 72.3353 186.732 73.8133 190.354C74.0897 190.907 74.5054 191.389 75.0249 191.758C79.871 195.607 85.4925 198.109 90.7748 201.403C98.6013 206.339 108.112 217.773 112.037 222.742L113.903 225.991C106.816 217.546 93.9369 211.456 88.9696 212.769C82.8151 214.388 94.7366 218.69 104.804 222.754C109.328 224.433 113.345 227.118 116.508 230.576C118.107 233.406 119.888 236.587 121.669 239.836C121.875 240.323 122.069 240.799 122.275 241.274C120.966 239.286 119.408 237.45 117.635 235.806C112.849 231.595 98.4317 227.35 96.0935 231.765C93.7552 236.18 104.574 235.591 113.37 238.24C118.107 239.793 122.216 242.676 125.134 246.493C125.304 246.719 125.461 246.957 125.631 247.172C126.43 248.666 127.181 250.127 127.896 251.508C129.544 254.757 131.119 257.802 132.658 260.757C130.256 256.598 127.224 252.785 123.656 249.436C116.629 243.255 106.307 240.651 102.03 242.802C97.7533 244.953 114.981 249.968 123.183 254.123C127.885 256.609 131.826 260.179 134.632 264.493C136.837 268.67 139.054 272.757 141.441 277.047C137.274 272.345 132.708 267.965 127.787 263.949C119.803 257.213 110.487 256.602 107.47 259.591C104.453 262.579 111.952 263.813 125.449 268.647C132.551 271.187 138.817 275.422 143.622 280.93C144.64 282.73 145.682 284.575 146.796 286.5C148.008 288.673 149.546 290.937 151.17 293.19C148.965 291.854 145.718 289.907 142.108 287.802C138.056 285.51 134.204 282.925 130.586 280.07C126.418 276.73 120.712 272.983 114.836 274.466C114.398 274.526 113.98 274.674 113.611 274.902C113.242 275.129 112.931 275.429 112.7 275.781C112.469 276.133 112.323 276.529 112.274 276.939C112.224 277.349 112.272 277.765 112.413 278.156C112.841 279.276 113.644 280.237 114.703 280.896C120.227 284.892 127.654 286.817 134.087 289.183C139.983 291.35 146.025 293.15 152.175 294.571C153.702 296.62 155.289 298.647 156.888 300.571L154.005 300.65C150.588 300.752 135.178 294.22 127.351 292.126C119.525 290.032 112.207 293.994 120.409 298.115C128.611 302.235 150.915 301.318 150.915 301.318L157.349 301.137C158.863 302.948 160.341 304.669 161.747 306.243H131.18V314.167H137.237L142.083 342.344H182.706L187.613 314.167H193.67V306.243H173.426C173.262 302.818 173.359 299.387 173.716 295.975C175.067 294.691 176.567 293.552 178.187 292.579C187.08 286.839 202.151 286.364 206.161 275.304C207.131 272.643 206.028 269.224 202.624 269.372C200.201 269.474 197.572 271.489 196.045 273.13C190.957 278.621 187.128 284.315 180.513 288.481C178.241 290.113 176.057 291.851 173.971 293.688C174.201 291.888 174.492 289.964 174.867 287.903C176.466 285.254 178.289 282.729 180.319 280.353C185.735 274.07 193.973 270.391 199.825 264.402C201.618 262.568 203.981 255.979 198.504 257.61C196.081 258.334 193.198 261.787 191.235 263.36C185.844 267.889 180.331 272.711 176.818 278.666C176.963 278.077 177.121 277.534 177.266 276.9C181.046 271.237 185.304 265.865 190 260.836C197.778 252.572 205.749 247.161 205.883 242.633C206.016 238.104 195.984 245.689 187.467 256.059C183.604 260.816 180.607 266.136 178.599 271.806C180.162 265.942 181.822 260.01 183.445 254.327C184.56 251.496 187.867 244.138 193.961 239.033C201.654 232.614 207.882 227.316 208.984 220.92C210.087 214.524 206.997 216.55 200.176 225.991ZM157.155 298.805C156.004 297.345 154.804 295.76 153.52 294.005C152.755 291.029 152.245 288.001 151.994 284.949C151.838 282.351 151.968 279.745 152.381 277.172C154.449 279.564 156.645 281.857 158.96 284.043C158.905 286.306 158.608 288.559 158.076 290.767C157.622 293.43 157.314 296.113 157.155 298.805ZM163.746 306.265C162.183 304.714 160.474 302.869 158.621 300.605C158.667 298.809 158.931 297.024 159.408 295.284C160.148 292.541 161.213 289.883 162.582 287.36C165.454 289.907 167.562 291.594 167.562 291.594L172.408 295.567C172.032 299.518 171.814 303.231 171.681 306.243L163.746 306.265ZM172.469 294.877L170.3 293.1C169.088 292.081 166.908 288.141 164.533 283.602C165.546 281.691 166.444 279.73 167.223 277.726C169.791 282.175 172.069 285.651 173.414 287.496C173.026 289.952 172.723 292.454 172.469 294.877Z" fill="white"/>
<path d="M80.6826 12.8025V127.593H173.971V12.8025H80.6826ZM167.501 119.589H87.2007V20.8174H167.501V119.589Z" fill="#C956FF"/>
<path opacity="0.5" d="M80.6826 12.8025V127.593H173.971V12.8025H80.6826ZM167.501 119.589H87.2007V20.8174H167.501V119.589Z" fill="white"/>
<path d="M407.131 68.8051V153.573H476.043V68.8051H407.131ZM471.233 147.653H411.977V74.771H471.27L471.233 147.653Z" fill="#C956FF"/>
<path opacity="0.5" d="M407.131 68.8051V153.573H476.043V68.8051H407.131ZM471.233 147.653H411.977V74.771H471.27L471.233 147.653Z" fill="white"/>
<path d="M13.1152 354.185C16.5923 343.181 52.6113 228.798 52.4901 227.938C52.369 227.078 55.4341 211.716 62.6064 198.912C69.7787 186.109 79.7375 171.845 80.9854 170.101C82.8844 167.261 84.1534 164.092 84.7169 160.785C85.6498 156.132 95.6207 143.317 98.7344 139.83C101.848 136.344 111.189 118.004 111.819 115.095C112.449 112.185 116.168 109.853 121.16 108.982C126.151 108.11 132.997 107.238 132.997 107.238C134.263 108.631 135.027 110.363 135.177 112.185C135.177 114.801 123.959 177.369 123.341 187.852C122.723 198.335 124.274 204.142 119.294 214.919C114.315 225.697 99.6673 232.376 92.5071 236.746C85.3469 241.115 85.8921 242.021 85.8921 242.021C85.8921 242.021 89.9386 346.77 89.8417 355" fill="white"/>
<mask id="mask0_81_9822" style="mask-type:luminance" maskUnits="userSpaceOnUse" x="13" y="107" width="123" height="248">
<path d="M13.1152 354.185C16.5923 343.181 52.6113 228.798 52.4901 227.938C52.369 227.078 55.4341 211.716 62.6064 198.912C69.7787 186.109 79.7375 171.845 80.9854 170.101C82.8844 167.261 84.1534 164.092 84.7169 160.785C85.6498 156.132 95.6207 143.317 98.7344 139.83C101.848 136.344 111.189 118.004 111.819 115.095C112.449 112.185 116.168 109.853 121.16 108.982C126.151 108.11 132.997 107.238 132.997 107.238C134.263 108.631 135.027 110.363 135.177 112.185C135.177 114.801 123.959 177.369 123.341 187.852C122.723 198.335 124.274 204.142 119.294 214.919C114.315 225.697 99.6673 232.376 92.5071 236.746C85.3469 241.115 85.8921 242.021 85.8921 242.021C85.8921 242.021 89.9386 346.77 89.8417 355" fill="white"/>
</mask>
<g mask="url(#mask0_81_9822)">
<g style="mix-blend-mode:multiply" opacity="0.7">
<path d="M139.733 175.875C138.436 170.452 130.041 173.464 130.041 173.464C124.323 179.261 117.284 183.784 109.444 186.697C96.3219 191.334 83.6408 196.995 71.5356 203.622C72.9167 201.029 74.419 198.414 76.0425 195.697C84.4142 181.863 99.2191 163.219 107.542 160.807C112.679 159.336 117.804 162.381 121.003 164.962L121.366 108.925H121.16C116.168 109.797 112.437 112.129 111.819 115.038C111.201 117.948 101.848 136.276 98.7345 139.774C95.6209 143.272 85.6499 156.075 84.717 160.728C84.1535 164.036 82.8846 167.204 80.9855 170.045C79.774 171.788 69.7667 186.041 62.6065 198.856C55.4464 211.67 52.3691 227.01 52.4902 227.882C52.575 228.515 38.7151 275.428 29.9072 304.952C37.1764 291.594 48.4801 269.983 55.3495 254.009C58.0512 253.76 63.285 246.923 67.6223 241.353C72.7713 234.742 80.4888 232.93 95.948 222.108C111.407 211.286 128.768 196.241 131.349 190.229C133.93 184.218 141.017 181.286 139.733 175.875Z" fill="#C956FF"/>
</g>
</g>
<path d="M13.1152 354.185C16.5923 343.181 52.6113 228.798 52.4901 227.938C52.369 227.078 55.4341 211.716 62.6064 198.912C69.7787 186.109 79.7375 171.845 80.9854 170.101C82.8844 167.261 84.1534 164.092 84.7169 160.785C85.6498 156.132 95.6207 143.317 98.7344 139.83C101.848 136.344 111.189 118.004 111.819 115.095C112.449 112.185 116.168 109.853 121.16 108.982C126.151 108.11 132.997 107.238 132.997 107.238C134.263 108.631 135.027 110.363 135.177 112.185C135.177 114.801 123.959 177.369 123.341 187.852C122.723 198.335 124.274 204.142 119.294 214.919C114.315 225.697 99.6673 232.376 92.5071 236.746C85.3469 241.115 85.8921 242.021 85.8921 242.021C85.8921 242.021 89.9386 346.77 89.8417 355" stroke="#2E353A" stroke-linecap="round" stroke-linejoin="round"/>
<path d="M120.53 178.535C120.53 178.535 117.113 178.241 113.685 172.422" stroke="#2E353A" stroke-linecap="round" stroke-linejoin="round"/>
<path d="M116.799 140.996C116.799 140.996 126.491 142.74 127.703 150.302" stroke="#2E353A" stroke-linecap="round" stroke-linejoin="round"/>
<path d="M119.912 117.416C122.056 118.94 123.83 120.871 125.119 123.081C126.407 125.292 127.18 127.732 127.387 130.242" stroke="#2E353A" stroke-linecap="round" stroke-linejoin="round"/>
<path d="M433.966 178.558L433.203 57.6884C433.199 54.1656 431.699 50.7881 429.032 48.2981C426.365 45.8081 422.749 44.4094 418.979 44.4094H135.904C132.135 44.4094 128.52 45.8085 125.855 48.2988C123.19 50.7891 121.693 54.1666 121.693 57.6884L120.917 178.558C120.916 180.32 121.286 182.065 122.007 183.693C122.728 185.322 123.785 186.801 125.119 188.047C126.452 189.293 128.036 190.281 129.778 190.955C131.521 191.628 133.388 191.974 135.274 191.973H419.609C421.495 191.974 423.363 191.628 425.105 190.955C426.848 190.281 428.431 189.293 429.764 188.047C431.098 186.801 432.155 185.322 432.876 183.693C433.597 182.065 433.967 180.32 433.966 178.558Z" fill="#2E353A" stroke="#363636" stroke-width="0.868674" stroke-linecap="round" stroke-linejoin="round"/>
<path d="M418.059 185.407L417.441 50.9075H137.443L136.837 185.407H418.059Z" fill="white" stroke="#363636" stroke-width="0.651505" stroke-linecap="round" stroke-linejoin="round"/>
<path d="M417.441 50.9075H137.443L137.419 57.6206H164.315L171.197 66.8128H417.514L417.441 50.9075Z" fill="#C956FF" stroke="#2E353A" stroke-linecap="round" stroke-linejoin="round"/>
<g style="mix-blend-mode:multiply" opacity="0.5">
<path d="M417.44 77.6691L220.626 185.407H418.058L417.44 77.6691Z" fill="#C956FF"/>
</g>
<path d="M427.44 118.121C427.455 117.002 426.497 116.083 425.299 116.068C424.102 116.054 423.118 116.949 423.103 118.068C423.087 119.187 424.046 120.106 425.243 120.121C426.441 120.135 427.424 119.24 427.44 118.121Z" fill="white"/>
<path d="M159.008 100.05C165.411 100.05 170.602 95.1995 170.602 89.2162C170.602 83.2329 165.411 78.3824 159.008 78.3824C152.605 78.3824 147.414 83.2329 147.414 89.2162C147.414 95.1995 152.605 100.05 159.008 100.05Z" fill="#C956FF" stroke="#2E353A" stroke-linecap="round" stroke-linejoin="round"/>
<path d="M159.008 144.596C165.411 144.596 170.602 139.746 170.602 133.763C170.602 127.779 165.411 122.929 159.008 122.929C152.605 122.929 147.414 127.779 147.414 133.763C147.414 139.746 152.605 144.596 159.008 144.596Z" fill="white" stroke="#2E353A" stroke-linecap="round" stroke-linejoin="round"/>
<path d="M238.243 100.05C244.646 100.05 249.837 95.1995 249.837 89.2162C249.837 83.2329 244.646 78.3824 238.243 78.3824C231.839 78.3824 226.648 83.2329 226.648 89.2162C226.648 95.1995 231.839 100.05 238.243 100.05Z" fill="white" stroke="#2E353A" stroke-linecap="round" stroke-linejoin="round"/>
<path d="M238.243 144.596C244.646 144.596 249.837 139.746 249.837 133.763C249.837 127.779 244.646 122.929 238.243 122.929C231.839 122.929 226.648 127.779 226.648 133.763C226.648 139.746 231.839 144.596 238.243 144.596Z" fill="#C956FF" stroke="#2E353A" stroke-linecap="round" stroke-linejoin="round"/>
<path d="M317.489 100.05C323.892 100.05 329.083 95.1995 329.083 89.2162C329.083 83.2329 323.892 78.3824 317.489 78.3824C311.086 78.3824 305.895 83.2329 305.895 89.2162C305.895 95.1995 311.086 100.05 317.489 100.05Z" fill="#C956FF" stroke="#2E353A" stroke-linecap="round" stroke-linejoin="round"/>
<path d="M317.489 144.596C323.892 144.596 329.083 139.746 329.083 133.763C329.083 127.779 323.892 122.929 317.489 122.929C311.086 122.929 305.895 127.779 305.895 133.763C305.895 139.746 311.086 144.596 317.489 144.596Z" fill="#C956FF" stroke="#2E353A" stroke-width="2" stroke-linecap="round" stroke-linejoin="round"/>
<path d="M396.723 100.05C403.127 100.05 408.318 95.1995 408.318 89.2162C408.318 83.2329 403.127 78.3824 396.723 78.3824C390.32 78.3824 385.129 83.2329 385.129 89.2162C385.129 95.1995 390.32 100.05 396.723 100.05Z" fill="#C956FF" stroke="#2E353A" stroke-linecap="round" stroke-linejoin="round"/>
<path d="M396.723 144.596C403.127 144.596 408.318 139.746 408.318 133.763C408.318 127.779 403.127 122.929 396.723 122.929C390.32 122.929 385.129 127.779 385.129 133.763C385.129 139.746 390.32 144.596 396.723 144.596Z" fill="white" stroke="#2E353A" stroke-linecap="round" stroke-linejoin="round"/>
<path d="M179.156 103.888H217.138" stroke="#2E353A" stroke-linecap="round" stroke-linejoin="round"/>
<path d="M179.156 112.072H217.138" stroke="#2E353A" stroke-linecap="round" stroke-linejoin="round"/>
<path d="M179.156 120.269H217.138" stroke="#2E353A" stroke-linecap="round" stroke-linejoin="round"/>
<path d="M257.312 103.888H295.294" stroke="#2E353A" stroke-linecap="round" stroke-linejoin="round"/>
<path d="M257.312 112.072H295.294" stroke="#2E353A" stroke-linecap="round" stroke-linejoin="round"/>
<path d="M257.312 120.269H295.294" stroke="#2E353A" stroke-linecap="round" stroke-linejoin="round"/>
<path d="M340.582 103.888H378.563" stroke="#2E353A" stroke-linecap="round" stroke-linejoin="round"/>
<path d="M340.582 112.072H378.563" stroke="#2E353A" stroke-linecap="round" stroke-linejoin="round"/>
<path d="M340.582 120.269H378.563" stroke="#2E353A" stroke-linecap="round" stroke-linejoin="round"/>
<path d="M179.156 150.234H217.138" stroke="#2E353A" stroke-linecap="round" stroke-linejoin="round"/>
<path d="M179.156 158.43H217.138" stroke="#2E353A" stroke-linecap="round" stroke-linejoin="round"/>
<path d="M179.156 166.615H217.138" stroke="#2E353A" stroke-linecap="round" stroke-linejoin="round"/>
<path d="M257.312 150.234H295.294" stroke="#2E353A" stroke-linecap="round" stroke-linejoin="round"/>
<path d="M257.312 158.43H295.294" stroke="#2E353A" stroke-linecap="round" stroke-linejoin="round"/>
<path d="M257.312 166.615H295.294" stroke="#2E353A" stroke-linecap="round" stroke-linejoin="round"/>
<path d="M340.582 150.234H378.563" stroke="#2E353A" stroke-linecap="round" stroke-linejoin="round"/>
<path d="M340.582 158.43H378.563" stroke="#2E353A" stroke-linecap="round" stroke-linejoin="round"/>
<path d="M340.582 166.615H378.563" stroke="#2E353A" stroke-linecap="round" stroke-linejoin="round"/>
<path d="M294.616 134.317H301.812" stroke="#2E353A" stroke-linecap="round" stroke-linejoin="round"/>
<path d="M318.252 120.88V112.48" stroke="#2E353A" stroke-linecap="round" stroke-linejoin="round"/>
<path d="M302.32 121.842L306.948 125.204" stroke="#2E353A" stroke-linecap="round" stroke-linejoin="round"/>
<path d="M307.978 142.955L302.32 145.842" stroke="#2E353A" stroke-linecap="round" stroke-linejoin="round"/>
<path d="M342.399 134.317H335.202" stroke="#2E353A" stroke-linecap="round" stroke-linejoin="round"/>
<path d="M334.68 121.842L330.064 125.204" stroke="#2E353A" stroke-linecap="round" stroke-linejoin="round"/>
<path d="M312.655 156.573L318.713 176.792" stroke="#2E353A" stroke-linecap="round" stroke-linejoin="round"/>
<path d="M306.585 154.14L310.05 164.656" stroke="#2E353A" stroke-linecap="round" stroke-linejoin="round"/>
<path d="M455.882 346.691C455.882 346.691 427.109 297.107 423.014 288.413C418.919 279.718 415.829 266.02 414.824 262.262C413.369 257.852 413.235 253.154 414.436 248.677C415.95 242.338 415.054 224.248 415.732 220.093C416.411 215.938 413.661 202.942 412.098 195.663C410.535 188.384 406.997 183.211 402.224 182.645C400.835 182.489 399.428 182.657 398.125 183.133C396.823 183.609 395.668 184.379 394.761 185.373C394.761 185.373 392.774 169.875 390.847 166.66C388.921 163.445 382.645 163.909 379.289 164.679C375.933 165.449 374.322 175.479 374.322 175.479C374.322 175.479 371.414 165.845 371.33 161.543C371.245 157.241 365.647 153.539 361.286 154.558C356.924 155.577 354.574 157.445 353.387 166.366C352.199 175.286 354.441 189.086 354.441 189.086L352.175 189.946C352.175 189.946 344.009 163.23 341.417 156.177C338.824 149.124 336.328 141.053 334.584 135.8C332.839 130.547 330.246 122.216 323.11 123.495C315.975 124.774 317.731 139.344 317.731 139.344C317.731 139.344 328.889 183.992 329.471 187.512C330.053 191.033 331.894 203.259 331.531 207.335C331.167 211.41 331.179 222.051 331.179 222.051L320.554 210.21C319.245 207.006 317.593 203.934 315.623 201.041C311.989 195.561 303.908 190.456 298.662 191.984C293.416 193.512 297.559 198.561 299.728 201.38C301.896 204.199 303.653 212.112 303.653 216.097C303.653 220.082 307.288 222.889 311.674 230.202C316.059 237.515 338.073 262.783 341.405 267.334C343.872 270.392 346.975 272.952 350.527 274.862C350.527 274.862 363.249 285.22 369.185 298.148C375.122 311.076 393.331 348.196 393.331 348.196" fill="white"/>
<mask id="mask1_81_9822" style="mask-type:luminance" maskUnits="userSpaceOnUse" x="296" y="123" width="160" height="226">
<path d="M455.882 346.691C455.882 346.691 427.109 297.107 423.014 288.413C418.919 279.718 415.829 266.02 414.824 262.262C413.369 257.852 413.235 253.154 414.436 248.677C415.95 242.338 415.054 224.248 415.732 220.093C416.411 215.938 413.661 202.942 412.098 195.663C410.535 188.384 406.997 183.211 402.224 182.645C400.835 182.489 399.428 182.657 398.125 183.133C396.823 183.609 395.668 184.379 394.761 185.373C394.761 185.373 392.774 169.875 390.847 166.66C388.921 163.445 382.645 163.909 379.289 164.679C375.933 165.449 374.322 175.479 374.322 175.479C374.322 175.479 371.414 165.845 371.33 161.543C371.245 157.241 365.647 153.539 361.286 154.558C356.924 155.577 354.574 157.445 353.387 166.366C352.199 175.286 354.441 189.086 354.441 189.086L352.175 189.946C352.175 189.946 344.009 163.23 341.417 156.177C338.824 149.124 336.328 141.053 334.584 135.8C332.839 130.547 330.246 122.216 323.11 123.495C315.975 124.774 317.731 139.344 317.731 139.344C317.731 139.344 328.889 183.992 329.471 187.512C330.053 191.033 331.894 203.259 331.531 207.335C331.167 211.41 331.179 222.051 331.179 222.051L320.554 210.21C319.245 207.006 317.593 203.934 315.623 201.041C311.989 195.561 303.908 190.456 298.662 191.984C293.416 193.512 297.559 198.561 299.728 201.38C301.896 204.199 303.653 212.112 303.653 216.097C303.653 220.082 307.288 222.889 311.674 230.202C316.059 237.515 338.073 262.783 341.405 267.334C343.872 270.392 346.975 272.952 350.527 274.862C350.527 274.862 363.249 285.22 369.185 298.148C375.122 311.076 393.331 348.196 393.331 348.196" fill="white"/>
</mask>
<g mask="url(#mask1_81_9822)">
<g style="mix-blend-mode:multiply" opacity="0.7">
<path d="M412.316 334.895C418.265 329.801 419.743 288.65 418.991 273.334C418.991 273.209 418.991 273.062 418.991 272.926C416.871 267.809 415.224 263.655 414.848 262.262C413.394 257.852 413.259 253.154 414.46 248.677C415.975 242.338 415.078 224.248 415.757 220.093C416.156 217.636 415.345 212.044 414.303 206.384C409.99 206.033 402.091 209.667 402.091 209.667C402.091 209.667 395.863 201.199 391.805 200.905C387.746 200.61 380.707 206.565 380.707 206.565C380.707 206.565 376.673 193.863 368.386 195.165C360.099 196.467 357.773 195.165 354.501 195.301C351.23 195.437 348.577 187.999 345.306 180.698C342.035 173.396 337.346 146.091 334.572 140.43C334.572 140.43 330.222 129.042 324.589 132.834C318.955 136.627 324.249 149.023 326.891 156.46C329.532 163.898 330.949 178.026 333.094 184.762C335.517 192.267 334.305 203.418 336.522 211.591C338.739 219.765 344.434 222.414 341.296 233.1C338.158 243.787 331.301 240.379 323.656 234.097C316.011 227.814 312.231 213.425 307.906 214.852C306.407 215.206 304.959 215.727 303.593 216.403C303.69 220.319 307.227 223.195 311.613 230.349C315.999 237.504 338.073 262.783 341.405 267.334C343.872 270.392 346.975 272.952 350.528 274.862C350.528 274.862 363.249 285.22 369.185 298.148C370.251 300.469 371.948 303.899 374.031 307.975C376.454 309.786 371.318 301.182 372.578 302.609C380.973 311.812 406.379 340 412.316 334.895Z" fill="#C956FF"/>
</g>
</g>
<path d="M455.882 346.691C455.882 346.691 427.109 297.107 423.014 288.413C418.919 279.718 415.829 266.02 414.824 262.262C413.369 257.852 413.235 253.154 414.436 248.677C415.95 242.338 415.054 224.248 415.732 220.093C416.411 215.938 413.661 202.942 412.098 195.663C410.535 188.384 406.997 183.211 402.224 182.645C400.835 182.489 399.428 182.657 398.125 183.133C396.823 183.609 395.668 184.379 394.761 185.373C394.761 185.373 392.774 169.875 390.847 166.66C388.921 163.445 382.645 163.909 379.289 164.679C375.933 165.449 374.322 175.479 374.322 175.479C374.322 175.479 371.414 165.845 371.33 161.543C371.245 157.241 365.647 153.539 361.286 154.558C356.924 155.577 354.574 157.445 353.387 166.366C352.199 175.286 354.441 189.086 354.441 189.086L352.175 189.946C352.175 189.946 344.009 163.23 341.417 156.177C338.824 149.124 336.328 141.053 334.584 135.8C332.839 130.547 330.246 122.216 323.11 123.495C315.975 124.774 317.731 139.344 317.731 139.344C317.731 139.344 328.889 183.992 329.471 187.512C330.053 191.033 331.894 203.259 331.531 207.335C331.167 211.41 331.179 222.051 331.179 222.051L320.554 210.21C319.245 207.006 317.593 203.934 315.623 201.041C311.989 195.561 303.908 190.456 298.662 191.984C293.416 193.512 297.559 198.561 299.728 201.38C301.896 204.199 303.653 212.112 303.653 216.097C303.653 220.082 307.288 222.889 311.674 230.202C316.059 237.515 338.073 262.783 341.405 267.334C343.872 270.392 346.975 272.952 350.527 274.862C350.527 274.862 363.249 285.22 369.185 298.148C375.122 311.076 393.331 348.196 393.331 348.196" stroke="#2E353A" stroke-linecap="round" stroke-linejoin="round"/>
<path d="M319.331 126.733C319.331 126.733 320.652 134.385 320.906 135.347C321.475 137.51 331.047 136.48 331.81 134.815C332.488 133.332 331.992 130.117 331.992 130.117" stroke="#2E353A" stroke-linecap="round" stroke-linejoin="round"/>
<path d="M302.939 201.731C303.735 200.975 304.228 199.987 304.336 198.931C304.444 197.876 304.161 196.818 303.532 195.935C301.279 192.799 300.019 192.097 300.019 192.097" stroke="#2E353A" stroke-linecap="round" stroke-linejoin="round"/>
<path d="M330.404 171.075C330.404 171.075 334.681 172.411 338.703 167.486" stroke="#2E353A" stroke-width="0.75" stroke-linecap="round" stroke-linejoin="round"/>
<path d="M330.913 167.6C330.913 167.6 336.619 163.603 340.981 163.932" stroke="#2E353A" stroke-width="0.75" stroke-linecap="round" stroke-linejoin="round"/>
<path d="M325.001 146.713C325.001 146.713 329.278 142.728 332.706 143.589" stroke="#2E353A" stroke-width="0.75" stroke-linecap="round" stroke-linejoin="round"/>
<path d="M329.023 145.774C330.781 146.05 332.582 145.973 334.305 145.547" stroke="#2E353A" stroke-width="0.75" stroke-linecap="round" stroke-linejoin="round"/>
<path d="M374.31 175.513L376.563 187.977" stroke="#2E353A" stroke-linecap="round" stroke-linejoin="round"/>
<path d="M394.749 185.407L397.159 198.494" stroke="#2E353A" stroke-linecap="round" stroke-linejoin="round"/>
<path d="M331.167 222.131C331.167 222.131 330.561 231.923 331.567 235.715" stroke="#2E353A" stroke-linecap="round" stroke-linejoin="round"/>
<path d="M376.576 194.61C376.576 194.61 379.06 200.758 378.454 204.799" stroke="#2E353A" stroke-width="0.75" stroke-linecap="round" stroke-linejoin="round"/>
<path d="M396.894 200.961C396.894 200.961 398.578 204.131 397.572 209.905" stroke="#2E353A" stroke-width="0.75" stroke-linecap="round" stroke-linejoin="round"/>
<path d="M109.008 183.188C109.008 183.188 119.294 181.445 124.891 175.049C130.489 168.653 143.888 160.49 148.25 159.041C152.611 157.592 159.469 157.287 161.964 159.324C164.46 161.362 165.696 166.309 161.964 172.139C158.233 177.969 143.016 183.448 139.842 186.098C136.668 188.747 133.929 190.467 130.149 198.324C126.47 205.935 121.174 212.767 114.581 218.406C108.657 223.353 97.7652 231.799 92.1558 234.991" fill="white"/>
<mask id="mask2_81_9822" style="mask-type:luminance" maskUnits="userSpaceOnUse" x="92" y="157" width="73" height="78">
<path d="M109.008 183.188C109.008 183.188 119.294 181.445 124.891 175.049C130.489 168.653 143.888 160.49 148.25 159.041C152.611 157.592 159.469 157.287 161.964 159.324C164.46 161.362 165.696 166.309 161.964 172.139C158.233 177.969 143.016 183.448 139.842 186.098C136.668 188.747 133.929 190.467 130.149 198.324C126.47 205.935 121.174 212.767 114.581 218.406C108.657 223.353 97.7652 231.799 92.1558 234.991" fill="white"/>
</mask>
<g mask="url(#mask2_81_9822)">
<g style="mix-blend-mode:multiply" opacity="0.7">
<path d="M139.733 175.875C138.437 170.453 130.041 173.464 130.041 173.464C124.324 179.261 117.285 183.784 109.445 186.698C96.3224 191.334 83.6413 196.996 71.536 203.622C72.9172 201.029 74.4195 198.414 76.0429 195.697C84.4147 181.864 99.2196 163.219 107.543 160.808C112.68 159.336 117.805 162.381 121.003 164.962L121.366 108.925H121.16C116.169 109.797 112.437 112.129 111.82 115.039C111.202 117.948 101.849 136.276 98.735 139.774C95.6213 143.272 85.6504 156.076 84.7175 160.728C84.154 164.036 82.8851 167.204 80.986 170.045C79.7745 171.788 69.7672 186.041 62.607 198.856C55.4469 211.671 52.3696 227.01 52.4907 227.882C52.5755 228.516 38.7156 275.428 29.9077 304.952C37.1769 291.594 48.4805 269.983 55.3499 254.01C58.0517 253.761 63.2855 246.923 67.6228 241.353C72.7718 234.742 80.4893 232.931 95.9485 222.108C111.408 211.286 128.769 196.241 131.349 190.23C133.93 184.218 141.018 181.286 139.733 175.875Z" fill="#C956FF"/>
</g>
</g>
<path d="M109.008 183.188C109.008 183.188 119.294 181.445 124.891 175.049C130.489 168.653 143.888 160.49 148.25 159.041C152.611 157.592 159.469 157.287 161.964 159.324C164.46 161.362 165.696 166.309 161.964 172.139C158.233 177.969 143.016 183.448 139.842 186.098C136.668 188.747 133.929 190.467 130.149 198.324C126.47 205.935 121.174 212.767 114.581 218.406C108.657 223.353 97.7652 231.799 92.1558 234.991" stroke="#2E353A" stroke-linecap="round" stroke-linejoin="round"/>
<path d="M162.267 169.864C160.402 172.479 155.725 172.773 155.725 172.773C155.725 172.773 153.859 168.992 152.611 166.66C151.64 165.091 150.244 163.787 148.565 162.879C148.565 162.879 150.128 159.098 153.241 159.098" stroke="#2E353A" stroke-linecap="round" stroke-linejoin="round"/>
<path d="M40.3385 242.225C51.8329 239.898 63.6063 239.004 75.3519 239.565C95.2332 240.459 99.9581 251.066 99.9581 251.066L99.0131 274.941C99.0131 274.941 88.6061 267.866 66.8348 265.217C45.0635 262.568 33.7114 264.334 33.7114 264.334L40.3385 242.225Z" fill="white" stroke="#2E353A" stroke-linecap="round" stroke-linejoin="round"/>
<path d="M100.152 353.63L105.277 277.002C72.1534 258.425 33.7114 264.334 33.7114 264.334L1 353.63H100.152Z" fill="#2E353A" stroke="#2E353A" stroke-linecap="round" stroke-linejoin="round"/>
<path d="M358.669 294.763C358.669 294.763 361.904 282.696 379.665 272.881C397.426 263.066 424.092 266.847 424.092 266.847L428.127 276.65C428.127 276.65 406.319 275.903 390.169 284.201C374.02 292.499 365.939 302.314 365.939 302.314L358.669 294.763Z" fill="white" stroke="#2E353A" stroke-linecap="round" stroke-linejoin="round"/>
<path d="M478.914 353.63L430.986 273.571C430.986 273.571 412.813 269.111 391.005 277.409C369.197 285.707 360.305 301.556 360.305 301.556L369.476 353.63H478.914Z" fill="#2E353A" stroke="#2E353A" stroke-linecap="round" stroke-linejoin="round"/>
<path d="M370.712 303.978C371.318 306.412 370.591 308.654 369.064 308.982C367.538 309.31 365.817 307.612 365.211 305.178C364.606 302.744 365.333 300.503 366.847 300.175C368.361 299.846 370.094 301.544 370.712 303.978Z" fill="white"/>
</svg>
